<?xml version="1.0" encoding="utf-8"?>
<!-- Svg Vector Icons : http://www.onlinewebfonts.com/icon -->
<!DOCTYPE svg PUBLIC "-//W3C//DTD SVG 1.1//EN" "http://www.w3.org/Graphics/SVG/1.1/DTD/svg11.dtd">
<svg version="1.1" xmlns="http://www.w3.org/2000/svg" xmlns:xlink="http://www.w3.org/1999/xlink" x="0px" y="0px" viewBox="0 0 1000 1000" enable-background="new 0 0 1000 1000" xml:space="preserve">
<metadata> Svg Vector Icons : http://www.onlinewebfonts.com/icon </metadata>
<g><path d="M812.8,505.5L812.8,505.5c-10.1-1.7-17.2-10.7-16.5-20.9c0.8-11.4,1.2-24.4,1.2-32.7c0-122.3-99.5-221.7-221.7-221.7c-84.5,0-168.4,57-206,137.9c-4.3,9.4-15.1,13.8-24.8,10.3l0,0c-10.9-4-16-16.5-11.1-27c19.4-41.5,50.1-79.2,88-107.6c46.6-34.8,99.8-53.2,153.8-53.2c69.8,0,135.4,27.2,184.8,76.5c49.4,49.4,76.5,115,76.5,184.8c0,8.8-0.4,22.6-1.3,35.4C835,499,824.3,507.4,812.8,505.5z"/><path d="M275.5,593.6"/><path d="M148.2,474.9l-21.9-0.7c1.2-38.7,17.3-78.3,44.2-108.6c28.9-32.7,66.2-50.7,105-50.7c31.8,0,62.1,9.9,87.7,28.5l-23.3,32c-18.8-13.7-41.1-20.9-64.4-20.9c-55.4,0-101.4,53.5-110.1,106.4C164,469.2,156.6,475.2,148.2,474.9z"/><path d="M200.6,809.4C95.5,809.4,10,723.9,10,618.8c0-41.4,13.1-80.8,37.8-113.9c23.9-32,57.9-56.1,95.8-68l11,34.1c0.5,1.5-0.3,3-1.8,3.5C90.9,495.1,49.6,553.3,49.6,618.8c0,83.3,67.7,151,151,151L200.6,809.4L200.6,809.4z"/><path d="M819,809.2v-39.6c72.5,0,131.4-59,131.4-131.4c0-72.5-59.9-132.4-132.4-132.4v-39.6c94.3,0,172,77.7,172,172C990,732.5,913.3,809.2,819,809.2z"/><path d="M188.1,769.3h637.6v39.6H188.1V769.3z"/></g>
</svg>